<svg width="10" height="11" viewBox="0 0 10 11" fill="none" xmlns="http://www.w3.org/2000/svg">
<path d="M5 11L3.33333 9.42857H0.833333C0.611111 9.42857 0.416667 9.34782 0.25 9.18631C0.0833334 9.0248 0 8.84365 0 8.64286V0.785714C0 0.576191 0.0833334 0.392857 0.25 0.235714C0.416667 0.0785715 0.611111 0 0.833333 0H9.16667C9.37963 0 9.57176 0.0785715 9.74306 0.235714C9.91435 0.392857 10 0.576191 10 0.785714V8.64286C10 8.84365 9.91435 9.0248 9.74306 9.18631C9.57176 9.34782 9.37963 9.42857 9.16667 9.42857H6.66667L5 11ZM5.79167 5.48691L7.56944 4.75357L5.79167 4.02024L5.01389 2.34405L4.22222 4.02024L2.45833 4.75357L4.22222 5.48691L5.01389 7.1631L5.79167 5.48691Z" fill="white"/>
</svg>
