<svg width="13" height="13" viewBox="0 0 13 13" fill="none" xmlns="http://www.w3.org/2000/svg">
<path fill-rule="evenodd" clip-rule="evenodd" d="M6.99609 12.9961C3.68409 12.9961 0.996094 10.3141 0.996094 6.99609C0.996094 3.68409 3.68409 0.996094 6.99609 0.996094C10.3141 0.996094 12.9961 3.68409 12.9961 6.99609C12.9961 10.3141 10.3141 12.9961 6.99609 12.9961ZM8.90994 9.22112C8.98194 9.26312 9.05994 9.28712 9.14394 9.28712C9.29394 9.28712 9.44394 9.20912 9.52794 9.06512C9.65394 8.85512 9.58794 8.57912 9.37194 8.44712L7.23594 7.17512V4.40313C7.23594 4.15112 7.03194 3.95312 6.78594 3.95312C6.53994 3.95312 6.33594 4.15112 6.33594 4.40313V7.43313C6.33594 7.58912 6.41994 7.73312 6.55794 7.81712L8.90994 9.22112Z" fill="white"/>
</svg>
