<svg width="56" height="56" viewBox="0 0 56 56" fill="none" xmlns="http://www.w3.org/2000/svg">
<path d="M19.4321 26.7904C19.4321 26.7904 19.4263 26.7904 19.4321 26.7904V26.7904ZM40.39 30.6345C40.2692 30.6402 40.1886 30.5136 40.2519 30.41C40.3267 30.2892 40.3958 30.1626 40.4648 30.0302C42.3638 26.5315 45.2986 25.5417 47.14 25.2828C47.422 25.2425 47.5946 24.949 47.4911 24.6843C47.445 24.575 47.3587 24.4829 47.2494 24.4426C42.9335 22.7162 39.2967 24.7188 38.3529 25.323C38.2493 25.3863 38.1227 25.3115 38.1227 25.1907C38.1285 25.0411 38.1285 24.8915 38.1285 24.7361C38.0882 20.777 40.1425 18.4924 41.6272 17.3645C41.8574 17.1862 41.8689 16.8409 41.6387 16.6625L41.633 16.6567C41.5409 16.5819 41.4143 16.5417 41.2935 16.5589C36.7071 17.1689 34.5146 20.6734 33.991 21.6517C33.9334 21.7552 33.7838 21.7552 33.7263 21.6517C33.6572 21.5308 33.5939 21.4042 33.5191 21.2776C31.5453 17.8364 32.2243 14.8268 32.9724 13.1235C33.0875 12.8588 32.9264 12.5595 32.6444 12.5077H32.6386C32.5178 12.4847 32.397 12.5135 32.2991 12.5883C28.5817 15.362 28.3861 19.4995 28.4033 20.6158C28.4033 20.7367 28.271 20.8057 28.1732 20.7424C28.0581 20.6734 27.943 20.5986 27.8221 20.5295C24.3579 18.4752 23.4947 15.4598 23.3221 13.6126C23.2991 13.3421 23.0229 13.1638 22.7697 13.2558L22.7639 13.2616C22.6546 13.2961 22.5683 13.3767 22.5222 13.4803C20.5887 17.7559 22.4704 21.4963 23.0401 22.4688C23.0977 22.5724 23.0229 22.699 22.902 22.6932C22.7524 22.6817 22.574 22.6702 22.4474 22.6702C18.402 22.5379 16.198 20.2878 15.1622 18.7514C15.0126 18.527 14.6903 18.5039 14.5119 18.7054L14.5062 18.7111C14.4314 18.7917 14.3911 18.901 14.4026 19.0161C14.7248 23.2744 17.6021 25.628 18.8508 26.4624C18.9832 26.5488 19.0983 26.6178 19.1903 26.6754C19.2939 26.7329 19.2882 26.8825 19.1789 26.9343C19.0638 26.9919 18.9487 27.0494 18.8336 27.1127C15.1679 29.0807 12.0605 28.1428 10.432 27.3141C10.2191 27.2048 9.96009 27.3314 9.9083 27.5616C9.88528 27.6594 9.90256 27.763 9.96011 27.8435C13.5797 33.1895 19.6335 32.0846 20.7959 31.7566C20.9858 31.699 21.1239 31.5322 21.1354 31.3308C21.1354 31.3308 21.1354 31.3308 21.1354 31.325C21.4691 26.825 25.4455 23.4643 29.9686 23.9247C34.1694 24.3505 37.3401 27.9989 37.179 32.217C37.1214 33.7592 36.6323 35.1748 35.8439 36.3602C35.6368 36.6709 35.8324 37.091 36.2007 37.1313C36.7013 37.1831 37.2423 37.1083 37.858 36.8781C38.5313 36.6307 39.2218 36.2451 39.9527 35.779C43.3248 33.6441 46.3747 34.208 48.1068 34.887C48.3715 34.9906 48.6592 34.818 48.6938 34.5418V34.536C48.711 34.4209 48.6765 34.3001 48.6017 34.208C45.6611 30.5827 41.5064 30.5654 40.39 30.6345Z" fill="white"/>
<path d="M12.7849 37.281C18.1021 37.1486 21.6066 38.6966 24.996 40.1985C26.1412 40.7049 27.2287 41.1883 28.3911 41.6084C36.6028 44.6007 43.163 42.7996 48.3593 39.8532C50.1605 38.8347 51.8293 37.609 53.3658 36.2336C53.665 35.9402 53.4348 35.4683 52.9629 35.733C46.069 39.6921 39.8081 40.2503 33.1789 37.8046C32.1949 37.4421 28.2416 35.6006 27.2633 35.2266C18.7408 31.958 10.5292 33.0456 2.67424 39.1742C2.32897 39.4101 2.51309 40.0892 3.08279 39.836C5.91401 38.4664 9.25162 37.3673 12.7849 37.281Z" fill="white"/>
</svg>
