<svg width="28" height="25" viewBox="0 0 28 25" fill="none" xmlns="http://www.w3.org/2000/svg">
<path d="M10.3142 16.2437C11.3737 16.2437 12.6307 16.5293 13.8233 17.5017C13.8125 17.0976 13.8632 16.7055 13.9813 16.3268C14.5747 14.4135 16.5992 13.6638 16.6844 13.6322L17.3051 13.4087L17.6648 13.9612C18.4054 15.0975 18.6897 16.1691 18.6928 17.1338C19.6676 16.5484 20.6981 16.4348 21.3438 16.4348C22.4783 16.4348 23.3689 16.7388 23.4064 16.7516L23.5296 16.7939C23.6933 16.0924 23.7762 15.3744 23.7767 14.654C23.7767 9.45409 19.5611 5.23828 14.361 5.23828C9.16082 5.23828 4.94532 9.45409 4.94532 14.654C4.94428 15.7703 5.14214 16.8778 5.52964 17.9247C6.14512 17.4859 8.08414 16.2437 10.3142 16.2437Z" fill="url(#paint0_linear_594_28655)"/>
<path d="M16.6515 23.7942C16.6515 23.7942 9.21074 25.6536 5.84766 18.7273C5.84766 18.7273 12.9081 13.118 15.9806 22.5893C15.9806 22.5893 13.5744 22.3825 11.3037 20.3837C11.3037 20.3839 12.6725 22.8916 16.6515 23.7942ZM16.929 23.4243C16.929 23.4243 22.3195 22.7296 23.1339 17.5405C23.1339 17.5405 17.3785 15.5477 16.987 22.3698C16.987 22.3698 18.8726 21.4906 19.9031 19.9079C19.9031 19.9079 19.0343 21.9781 16.929 23.4243Z" fill="#37B34A"/>
<path d="M16.111 20.6606C16.111 20.6606 19.3986 18.146 16.9695 14.418C16.9695 14.418 12.6935 15.9604 15.7687 20.2415C15.7687 20.2415 16.3039 18.7297 16.1171 16.9373C16.1171 16.9373 16.8559 18.7212 16.111 20.6606Z" fill="#37B34A"/>
<path d="M14.361 0C14.2668 4.03195e-05 14.1765 0.0374426 14.1098 0.104C14.0432 0.170558 14.0056 0.260834 14.0055 0.355022V4.21886C14.0055 4.3131 14.0429 4.40348 14.1096 4.47012C14.1762 4.53675 14.2666 4.57419 14.3608 4.57419C14.4551 4.57419 14.5454 4.53675 14.6121 4.47012C14.6787 4.40348 14.7161 4.3131 14.7161 4.21886V0.355022C14.7161 0.260862 14.6786 0.170585 14.612 0.104019C14.5454 0.0374525 14.4551 4.04464e-05 14.361 0V0ZM4.70847 4.20618C4.64176 4.13972 4.55142 4.1024 4.45725 4.1024C4.36308 4.1024 4.27274 4.13972 4.20603 4.20618C4.13961 4.27289 4.10232 4.36319 4.10232 4.45733C4.10232 4.55146 4.13961 4.64176 4.20603 4.70847L6.93805 7.44033C6.97102 7.47335 7.01018 7.49955 7.05329 7.51742C7.09639 7.5353 7.1426 7.5445 7.18927 7.5445C7.23593 7.5445 7.28214 7.5353 7.32525 7.51742C7.36835 7.49955 7.40751 7.47335 7.44049 7.44033C7.47351 7.40741 7.49971 7.36829 7.51759 7.32522C7.53547 7.28215 7.54467 7.23598 7.54467 7.18934C7.54467 7.14271 7.53547 7.09653 7.51759 7.05346C7.49971 7.0104 7.47351 6.97128 7.44049 6.93835L4.70847 4.20618ZM4.21871 14.0056H0.355022C0.260847 14.0058 0.170594 14.0434 0.104045 14.11C0.0374959 14.1766 8.06548e-05 14.2669 0 14.3611C0.000161754 14.4553 0.0376596 14.5455 0.10427 14.6121C0.170881 14.6786 0.261166 14.7161 0.355327 14.7161H4.21886C4.31308 14.7161 4.40343 14.6787 4.47004 14.612C4.53665 14.5454 4.57406 14.455 4.57404 14.3608C4.57402 14.2666 4.53657 14.1762 4.46993 14.1096C4.4033 14.043 4.31293 14.0056 4.21871 14.0056ZM10.1322 2.87195C10.1148 2.82866 10.0891 2.78921 10.0564 2.75587C10.0238 2.72252 9.98492 2.69593 9.94202 2.67761C9.89912 2.65929 9.85302 2.6496 9.80637 2.64909C9.75973 2.64859 9.71343 2.65727 9.67014 2.67465C9.62685 2.69204 9.58741 2.71778 9.55406 2.7504C9.52072 2.78303 9.49413 2.82191 9.4758 2.86481C9.45748 2.90771 9.44779 2.95381 9.44729 3.00045C9.44678 3.0471 9.45546 3.0934 9.47285 3.13669L10.2513 5.08182C10.268 5.12609 10.2934 5.16658 10.3259 5.20091C10.3584 5.23525 10.3975 5.26275 10.4408 5.28179C10.4841 5.30083 10.5308 5.31104 10.5781 5.31181C10.6254 5.31257 10.6723 5.30389 10.7162 5.28626C10.7601 5.26864 10.8001 5.24243 10.8337 5.20916C10.8673 5.1759 10.894 5.13625 10.9121 5.09255C10.9302 5.04885 10.9394 5.00198 10.9392 4.95467C10.9389 4.90737 10.9292 4.86059 10.9107 4.81708L10.1322 2.87195ZM5.17302 10.0517L3.21704 9.23469C3.17413 9.21636 3.12803 9.20666 3.08137 9.20616C3.03472 9.20565 2.98842 9.21434 2.94512 9.23173C2.90182 9.24913 2.86238 9.27488 2.82903 9.30752C2.79569 9.34017 2.76911 9.37906 2.75081 9.42198C2.73245 9.46486 2.72274 9.51095 2.72221 9.55759C2.72169 9.60424 2.73036 9.65053 2.74774 9.69382C2.76512 9.73711 2.79087 9.77654 2.8235 9.80987C2.85614 9.8432 2.89503 9.86977 2.93794 9.88806L4.89392 10.7055C4.93682 10.7238 4.98291 10.7335 5.02956 10.734C5.0762 10.7345 5.12249 10.7258 5.16578 10.7084C5.20906 10.691 5.24849 10.6653 5.28182 10.6327C5.31515 10.6 5.34171 10.5611 5.36 10.5182C5.39697 10.4315 5.39804 10.3337 5.36299 10.2463C5.32793 10.1588 5.25961 10.0888 5.17302 10.0517ZM24.5156 4.20618C24.449 4.1397 24.3587 4.10236 24.2645 4.10236C24.1704 4.10236 24.0801 4.1397 24.0135 4.20618L21.2814 6.93835C21.2484 6.97127 21.2222 7.01038 21.2043 7.05345C21.1864 7.09652 21.1772 7.1427 21.1772 7.18934C21.1772 7.23598 21.1864 7.28216 21.2043 7.32523C21.2222 7.3683 21.2484 7.40742 21.2814 7.44033C21.4198 7.5792 21.645 7.5792 21.7839 7.44033L24.5157 4.70847C24.5822 4.64178 24.6195 4.55145 24.6195 4.45729C24.6195 4.36313 24.5821 4.27283 24.5156 4.20618ZM28.3666 14.0056H24.5028C24.4108 14.0089 24.3236 14.0478 24.2597 14.1141C24.1958 14.1803 24.16 14.2688 24.16 14.3609C24.16 14.453 24.1958 14.5414 24.2597 14.6077C24.3236 14.674 24.4108 14.7128 24.5028 14.7161H28.3661C28.4582 14.7129 28.5453 14.6741 28.6093 14.6079C28.6733 14.5416 28.709 14.4532 28.7091 14.3611C28.7092 14.269 28.6735 14.1805 28.6096 14.1142C28.5457 14.0479 28.4586 14.009 28.3666 14.0056ZM19.0519 2.67443C18.9644 2.63938 18.8666 2.6405 18.78 2.67754C18.6934 2.71458 18.625 2.78451 18.5899 2.87195L17.8108 4.81708C17.7758 4.90457 17.777 5.00235 17.814 5.08901C17.851 5.17566 17.9208 5.2441 18.0082 5.27934C18.0957 5.31436 18.1935 5.31323 18.2802 5.2762C18.3668 5.23916 18.4353 5.16926 18.4704 5.08182L19.2491 3.13669C19.2665 3.09339 19.2752 3.04708 19.2747 3.00041C19.2742 2.95374 19.2645 2.90763 19.2462 2.8647C19.2279 2.82178 19.2013 2.78288 19.168 2.75023C19.1346 2.71758 19.0952 2.69182 19.0519 2.67443ZM25.9708 9.42198C25.9526 9.37906 25.9261 9.34017 25.8928 9.30752C25.8595 9.27487 25.82 9.24911 25.7768 9.23171C25.7335 9.21431 25.6872 9.20562 25.6406 9.20613C25.594 9.20664 25.5479 9.21635 25.505 9.23469L23.5491 10.0517C23.4624 10.0888 23.394 10.1587 23.3589 10.2462C23.3239 10.3337 23.3249 10.4315 23.3619 10.5182C23.3802 10.5611 23.4068 10.6 23.4401 10.6326C23.4734 10.6653 23.5128 10.691 23.5561 10.7084C23.5993 10.7258 23.6456 10.7345 23.6923 10.734C23.7389 10.7335 23.785 10.7238 23.8279 10.7055L25.784 9.88806C25.8269 9.86979 25.8658 9.84323 25.8985 9.8099C25.9311 9.77656 25.9568 9.73711 25.9742 9.69381C25.9915 9.65051 26.0002 9.60421 25.9996 9.55756C25.999 9.51091 25.9892 9.46484 25.9708 9.42198Z" fill="#F6921E"/>
<defs>
<linearGradient id="paint0_linear_594_28655" x1="-5.23849" y1="4.94467" x2="-5.23849" y2="23.7761" gradientUnits="userSpaceOnUse">
<stop stop-color="#F6921E"/>
<stop offset="1" stop-color="#FDBC1E"/>
</linearGradient>
</defs>
</svg>
