<svg width="28" height="27" viewBox="0 0 28 27" fill="none" xmlns="http://www.w3.org/2000/svg">
<path d="M11.0927 0.856838C10.4681 1.46231 10.1399 2.28647 10.0439 3.14037C10.0035 3.51685 9.99958 3.89636 10.0322 4.2736C10.0457 4.43872 10.0678 4.6015 10.0899 4.76545C10.106 4.88495 10.1852 5.05773 10.2715 5.00004C10.2947 4.98444 10.3186 4.95177 10.3415 4.89643C10.3857 4.79076 10.3907 4.6536 10.423 4.54174C10.4896 4.31304 10.5817 4.09169 10.6989 3.88359C10.9256 3.48495 11.2363 3.14045 11.6096 2.87399C13.1993 1.73928 12.5273 0 12.5273 0C11.9972 0.185732 11.4968 0.464771 11.0927 0.856838ZM9.24449 3.16421C10.491 1.21035 8.28846 0.855661 8.28846 0.855661C8.28846 0.855661 6.98186 2.66441 9.24449 3.16421ZM15.9956 0.856838C15.5912 0.464771 15.0905 0.185732 14.561 0C14.561 0 13.889 1.73928 15.479 2.87399C15.8522 3.14053 16.1629 3.48502 16.3897 3.88359C16.5063 4.09169 16.599 4.31304 16.6658 4.54174C16.6973 4.6536 16.7029 4.79076 16.7468 4.89643C16.7703 4.95177 16.7939 4.98444 16.8171 5.00004C16.9031 5.05773 16.9825 4.88495 16.9984 4.76545C17.0202 4.6015 17.0426 4.43872 17.0558 4.2736C17.0886 3.89637 17.0848 3.51685 17.0443 3.14037C16.9487 2.28677 16.6202 1.46231 15.9956 0.856838ZM9.47232 4.50554C9.22869 4.21574 8.95762 3.95018 8.66287 3.71257C7.99117 3.17716 7.17584 2.82601 6.30664 2.83955C5.74297 2.84838 5.19195 3.00526 4.68627 3.2481C4.68627 3.2481 5.44097 4.95353 7.36746 4.63093C7.80897 4.55705 8.28493 4.57736 8.72556 4.70069C8.95515 4.76545 9.17709 4.85669 9.38578 4.97149C9.48733 5.02712 9.58829 5.12131 9.69396 5.16428C9.74959 5.18724 9.78962 5.19342 9.81699 5.18783C9.91884 5.1684 9.85261 4.99003 9.77932 4.89378C9.67865 4.7625 9.57916 4.63123 9.47232 4.50554ZM3.16391 9.2442C2.66412 6.98157 0.855661 8.28846 0.855661 8.28846C0.855661 8.28846 1.21035 10.4913 3.16391 9.2442ZM26.2326 8.28846C26.2326 8.28846 24.4239 6.98186 23.9244 9.2442C25.8779 10.4913 26.2326 8.28846 26.2326 8.28846ZM23.9479 10.0439C23.5714 10.0032 23.1919 9.99928 22.8147 10.0322C22.6496 10.0454 22.4871 10.0678 22.3228 10.0899C22.203 10.106 22.0305 10.1849 22.0882 10.2709C22.1041 10.2944 22.1368 10.318 22.1921 10.3409C22.2978 10.3851 22.435 10.3901 22.5468 10.4225C22.7755 10.4893 22.9969 10.5811 23.205 10.6983C23.6035 10.9251 23.9479 11.236 24.2143 11.6093C25.3487 13.1993 27.0883 12.527 27.0883 12.527C26.9022 11.9972 26.6235 11.4971 26.2314 11.0927C25.626 10.4678 24.8015 10.1396 23.9479 10.0439ZM2.87369 11.6093C3.14022 11.236 3.48471 10.9252 3.88329 10.6983C4.0911 10.5814 4.31245 10.4893 4.54145 10.4225C4.65271 10.3901 4.79017 10.3851 4.89613 10.3409C4.95147 10.318 4.98385 10.2944 4.99974 10.2709C5.05773 10.1849 4.88465 10.1057 4.76515 10.0899C4.60149 10.0678 4.43843 10.0454 4.27359 10.0322C3.89635 9.99958 3.51685 10.0035 3.14037 10.0439C2.28677 10.1396 1.46201 10.4678 0.856544 11.0927C0.464476 11.4974 0.185732 11.9975 0 12.5273C0 12.5273 1.73958 13.1996 2.87369 11.6093ZM22.3876 8.72527C22.3228 8.95506 22.232 9.17668 22.1168 9.38578C22.0612 9.48762 21.9673 9.588 21.924 9.69396C21.9013 9.7493 21.8949 9.78933 21.9002 9.817C21.9202 9.91884 22.0985 9.85232 22.1945 9.77961C22.3255 9.67924 22.4571 9.57946 22.583 9.47261C22.8726 9.22888 23.138 8.9577 23.3754 8.66287C23.9114 7.99147 24.2623 7.17584 24.249 6.30664C24.2399 5.74326 24.0833 5.19225 23.8402 4.68627C23.8402 4.68627 22.135 5.44067 22.4571 7.36716C22.5312 7.80868 22.5106 8.28464 22.3876 8.72527ZM17.3943 5.16428C17.5003 5.12131 17.6007 5.02712 17.7028 4.97149C17.9115 4.85669 18.1334 4.76545 18.363 4.70069C18.8052 4.57934 19.2685 4.55554 19.7208 4.63093C21.6476 4.95353 22.4017 3.2481 22.4017 3.2481C21.8957 3.00526 21.345 2.84867 20.7816 2.83955C19.9118 2.82601 19.0965 3.17687 18.4251 3.71257C18.1304 3.95018 17.8593 4.21574 17.6157 4.50554C17.5088 4.63152 17.409 4.7625 17.3087 4.89378C17.2357 4.99003 17.1688 5.1684 17.271 5.18783C17.2987 5.19342 17.339 5.18724 17.3943 5.16428ZM18.7998 0.855661C18.7998 0.855661 16.5972 1.21035 17.8438 3.16421C20.1064 2.66441 18.7998 0.855661 18.7998 0.855661ZM4.50554 9.47261C4.63152 9.57946 4.7625 9.67924 4.89378 9.77961C4.98974 9.85232 5.16811 9.91884 5.18812 9.817C5.19342 9.78933 5.18724 9.74959 5.16428 9.69396C5.12101 9.588 5.02712 9.48762 4.97119 9.38578C4.8564 9.1768 4.76486 8.95457 4.70069 8.72527C4.57932 8.28307 4.55552 7.81977 4.63093 7.36746C4.95324 5.44097 3.2481 4.68656 3.2481 4.68656C3.00497 5.19254 2.84808 5.74356 2.83955 6.30693C2.82601 7.17613 3.17687 7.99176 3.71228 8.66316C3.95007 8.95785 4.21572 9.22892 4.50554 9.47261ZM22.583 17.616C22.4568 17.5094 22.3255 17.4096 22.1945 17.3093C22.0985 17.236 21.9202 17.1697 21.9002 17.2719C21.8949 17.2992 21.9013 17.339 21.924 17.3946C21.9673 17.5003 22.0612 17.6012 22.1168 17.7025C22.2319 17.9121 22.3231 18.1337 22.3876 18.3633C22.5089 18.8055 22.5326 19.2688 22.4571 19.7211C22.135 21.6476 23.8402 22.402 23.8402 22.402C24.0833 21.896 24.2396 21.3453 24.249 20.7816C24.2623 19.9121 23.9117 19.0968 23.3754 18.4251C23.1378 18.1306 22.8725 17.8596 22.583 17.616ZM19.7211 22.4573C19.2688 22.533 18.8055 22.5093 18.3633 22.3879C18.1336 22.3232 17.9121 22.2325 17.7031 22.1174C17.6009 22.0612 17.5006 21.9676 17.3946 21.924C17.3393 21.9016 17.299 21.8949 17.2716 21.9007C17.1694 21.9202 17.2363 22.0988 17.3093 22.1945C17.4096 22.3258 17.5094 22.4573 17.6163 22.5833C17.8599 22.873 18.131 23.1385 18.4257 23.376C19.0971 23.9117 19.9124 24.2629 20.7822 24.249C21.3456 24.2402 21.8963 24.0836 22.4023 23.8405C22.402 23.8405 21.6476 22.1347 19.7211 22.4573ZM3.14037 17.0446C3.51685 17.0851 3.89637 17.0889 4.27359 17.0561C4.43843 17.0429 4.60149 17.0205 4.76515 16.9984C4.88495 16.9825 5.05773 16.9031 4.99974 16.8171C4.98385 16.7942 4.95147 16.7703 4.89613 16.7474C4.79046 16.7032 4.65301 16.6979 4.54145 16.6658C4.31221 16.5994 4.09138 16.5069 3.88329 16.39C3.48473 16.1632 3.14024 15.8525 2.87369 15.4793C1.73958 13.889 0 14.5612 0 14.5612C0.185732 15.0911 0.464476 15.5915 0.856544 15.9959C1.46201 16.6202 2.28677 16.9484 3.14037 17.0446ZM16.9984 22.3234C16.9822 22.2036 16.9031 22.0308 16.8171 22.0885C16.7939 22.1041 16.7703 22.1371 16.7468 22.1924C16.7029 22.2981 16.6973 22.4353 16.6658 22.5468C16.599 22.7755 16.5066 22.9972 16.3897 23.2047C16.163 23.6034 15.8523 23.948 15.479 24.2146C15.0219 24.5407 14.7558 24.9169 14.6025 25.2872L14.6454 25.774C14.7405 26.8428 14.9036 27.9045 15.0658 28.9644L15.5994 26.5555C15.7383 26.4566 15.8726 26.3512 15.9959 26.2317C16.6205 25.626 16.9487 24.8015 17.0446 23.9479C17.0873 23.5717 17.0873 23.1914 17.0561 22.8144C17.0429 22.6499 17.0205 22.4868 16.9984 22.3234ZM24.2143 15.4793C23.9478 15.8524 23.6034 16.1631 23.205 16.39C22.9969 16.5069 22.7755 16.599 22.5468 16.6658C22.435 16.6979 22.2978 16.7032 22.1921 16.7474C22.1368 16.7703 22.1041 16.7942 22.0882 16.8171C22.0305 16.9031 22.203 16.9828 22.3228 16.9984C22.4871 17.0205 22.6496 17.0429 22.8147 17.0561C23.1911 17.0867 23.5717 17.0867 23.9479 17.0446C24.8015 16.9484 25.626 16.6202 26.2314 15.9959C26.6235 15.5915 26.9022 15.0911 27.0883 14.5612C27.0883 14.5612 25.3487 13.889 24.2143 15.4793ZM23.9244 17.8438C24.4239 20.1067 26.2326 18.8001 26.2326 18.8001C26.2326 18.8001 25.8779 16.5972 23.9244 17.8438ZM17.8438 23.9244C16.5972 25.8776 18.7998 26.2329 18.7998 26.2329C18.7998 26.2329 20.1064 24.4242 17.8438 23.9244ZM4.70069 18.3633C4.76515 18.1337 4.8564 17.9121 4.97119 17.7025C5.02712 17.6012 5.12072 17.5003 5.16428 17.3946C5.18695 17.339 5.19342 17.2992 5.18812 17.2719C5.1684 17.1697 4.98974 17.236 4.89378 17.3093C4.7625 17.4096 4.63122 17.5094 4.50554 17.616C4.21572 17.8597 3.95007 18.1307 3.71228 18.4254C3.17657 19.0971 2.82601 19.9124 2.83955 20.7819C2.84808 21.3456 3.00497 21.8963 3.2481 22.4023C3.2481 22.4023 4.95324 21.6479 4.63093 19.7214C4.55522 19.269 4.57903 18.8056 4.70069 18.3633ZM11.6093 24.2146C11.2359 23.9482 10.9251 23.6035 10.6986 23.2047C10.5817 22.9967 10.4892 22.776 10.4228 22.5468C10.3904 22.4353 10.3854 22.2981 10.3412 22.1924C10.318 22.1371 10.2941 22.1041 10.2712 22.0885C10.1849 22.0308 10.1057 22.2036 10.0896 22.3234C10.0675 22.4871 10.0454 22.6499 10.0319 22.8147C9.99929 23.192 10.0032 23.5716 10.0436 23.9482C10.1396 24.8015 10.4678 25.6263 11.0924 26.232C11.2972 26.429 11.5252 26.6003 11.7714 26.7421L12.3127 28.9309C12.3357 27.7235 12.4261 26.5805 12.5185 25.3667C12.3725 24.9708 12.0993 24.5643 11.6093 24.2146ZM0.855661 18.8001C0.855661 18.8001 2.66441 20.1064 3.16391 17.8438C1.21035 16.5972 0.855661 18.8001 0.855661 18.8001ZM8.28846 26.2329C8.28846 26.2329 10.491 25.8776 9.24449 23.9244C6.98186 24.4242 8.28846 26.2329 8.28846 26.2329ZM9.69366 21.9237C9.58799 21.9673 9.48703 22.0609 9.38548 22.1171C9.17679 22.2319 8.95486 22.3231 8.72527 22.3876C8.28297 22.509 7.81954 22.5327 7.36716 22.4571C5.44097 22.1345 4.68597 23.8402 4.68597 23.8402C5.19195 24.0833 5.74267 24.2396 6.30634 24.2487C7.17584 24.2626 7.99088 23.9114 8.66257 23.3757C8.95711 23.138 9.22816 22.8725 9.47202 22.583C9.57916 22.4568 9.67865 22.3255 9.77873 22.1942C9.85202 22.0985 9.91825 21.9199 9.81641 21.9004C9.78933 21.8949 9.74929 21.9013 9.69366 21.9237Z" fill="#409F27"/>
<path d="M11.4082 8.10386C12.6895 7.01803 14.3151 6.69101 15.6724 8.05706C15.6785 8.06324 15.6838 8.07002 15.6903 8.0759C16.1168 6.81169 15.8587 5.00235 13.544 2.57812C11.2124 5.0206 10.9681 6.83818 11.4082 8.10386ZM18.141 15.247C19.3823 16.1153 21.4604 16.4565 24.5104 13.5445C21.2629 10.4442 19.1162 11.0308 17.9094 12.016C18.1622 12.8987 18.2791 13.8139 18.2084 14.7204C18.1938 14.8969 18.1713 15.0726 18.141 15.247ZM21.3347 5.75411C18.7898 6.21417 17.1977 7.41304 16.2042 8.67548C16.8218 9.4814 17.3436 10.4024 17.7025 11.3799C19.2016 10.4519 20.7884 8.77556 21.3347 5.75411ZM5.75381 5.75411C6.27804 8.65458 7.76154 10.3156 9.2056 11.2654C9.61091 10.2841 10.1919 9.37632 10.8566 8.64163C9.8611 7.39155 8.27606 6.21005 5.75381 5.75411ZM9.46197 17.0163C9.24742 16.7025 9.07104 16.3641 8.93657 16.0085C7.5814 16.984 6.24566 18.6146 5.75381 21.335C8.25251 20.8834 9.83049 19.7196 10.8274 18.4828C10.734 18.4101 10.6452 18.3317 10.5614 18.2482C10.1469 17.8794 9.77192 17.4699 9.46197 17.0163ZM2.57812 13.5445C5.4683 16.304 7.48603 16.1424 8.74583 15.3792C8.47915 14.2401 8.60396 13.0188 8.98337 11.8662C7.74594 10.9799 5.65697 10.6049 2.57812 13.5445ZM14.482 20.0711C14.3923 20.2903 14.3652 20.5385 14.3728 20.7548C14.4167 22.017 14.4323 22.7019 14.47 23.4325C16.0159 21.4144 16.0641 19.8856 15.6123 18.801C15.1049 19.1521 14.6474 19.5315 14.482 20.0711ZM17.9939 15.899C17.8075 16.5316 17.5082 17.1279 17.0873 17.648C16.8556 17.9353 16.5354 18.1749 16.1981 18.4054C17.1909 19.6707 18.7845 20.8737 21.3347 21.3347C20.824 18.5087 19.4026 16.8597 17.9939 15.899ZM11.4373 18.9057C11.0279 19.9913 11.1203 21.4974 12.648 23.4725C12.6868 22.7876 12.7174 22.0673 12.728 21.2843C12.7268 20.7168 12.6594 20.1585 12.4019 19.7287C12.1482 19.3746 11.7964 19.1389 11.4373 18.9057Z" fill="#70B328"/>
</svg>
