<svg width="28" height="28" viewBox="0 0 28 28" fill="none" xmlns="http://www.w3.org/2000/svg">
<mask id="mask0_594_28683" style="mask-type:alpha" maskUnits="userSpaceOnUse" x="0" y="0" width="28" height="28">
<circle cx="14" cy="14" r="14" fill="#D9D9D9"/>
</mask>
<g mask="url(#mask0_594_28683)">
<path d="M6.81828 4.02344C3.31889 6.2827 1 10.2142 1 14.6895C1 21.6982 6.68152 27.3794 13.6901 27.3794C14.5982 27.3794 15.4841 27.2823 16.3386 27.101C-1.70181 19.4367 5.5084 6.15879 6.81828 4.02344Z" fill="#009345"/>
<path d="M13.6929 2C11.6679 1.99925 9.67242 2.48606 7.87522 3.41929C7.25296 4.90257 6.74969 7.41703 8.43019 10.3242L9.65883 10.8458L7.81997 4.46276L12.028 9.60216L13.3653 3.09626L14.7025 9.60216L18.9106 4.46276L17.0712 10.8456L23.1854 8.24989L18.5908 13.0466L25.2105 13.5901L18.9133 15.7022L24.5221 19.2601L17.9645 18.2032L21.2779 23.9599L17.6466 21.2393C18.2142 22.9165 18.0474 24.6678 17.1095 26.9098C22.4578 25.4181 26.3828 20.5147 26.3828 14.6901C26.3828 7.68124 20.7018 2 13.6929 2Z" fill="#F6921E"/>
<path d="M12.086 15.3699C5.18595 10.268 6.51224 5.0985 6.91595 3.96094L6.81831 4.02357C6.36809 4.7577 5.22041 6.80799 4.6411 9.49475V9.49558C4.61531 9.61462 4.59096 9.73397 4.56807 9.85361C4.42475 10.8618 4.42995 13.81 8.66893 16.2977C13.8723 19.3518 17.7875 20.9962 16.3406 27.1003C16.3548 27.0773 19.9444 21.18 12.086 15.3699Z" fill="#8BC53F"/>
</g>
</svg>
