<svg width="16" height="16" viewBox="0 0 16 16" fill="none" xmlns="http://www.w3.org/2000/svg">
<path fill-rule="evenodd" clip-rule="evenodd" d="M4.3268 10.3253L2.56093 10.844C2.41214 10.8877 2.25642 10.8025 2.21269 10.6537C2.19945 10.6089 2.198 10.5637 2.20646 10.5211H2.20612L2.58049 8.62075C2.40231 8.3089 2.26087 7.97159 2.16203 7.61602C2.05663 7.23619 2 6.83763 2 6.42834C2 5.20536 2.49593 4.09828 3.2971 3.2971C4.0983 2.4959 5.20552 2 6.42834 2C7.65132 2 8.75819 2.49593 9.55959 3.2971C10.3608 4.0983 10.8567 5.20552 10.8567 6.42834C10.8567 7.65088 10.3611 8.75818 9.55959 9.55958C8.75839 10.3608 7.65117 10.8567 6.42834 10.8567C6.03449 10.8567 5.65142 10.8045 5.28516 10.7072C4.94905 10.6176 4.62797 10.489 4.32707 10.3263L4.3268 10.3253ZM13.4877 13.9879L12.1754 13.6025C11.9498 13.7222 11.7096 13.8174 11.459 13.8843C11.1758 13.9599 10.8793 14 10.5752 14C9.62919 14 8.7729 13.6165 8.15326 12.9967C7.70876 12.5526 7.38589 11.9865 7.2389 11.3528C8.26268 11.1853 9.21198 10.7019 9.95687 9.95688C10.7018 9.21189 11.1853 8.26268 11.3528 7.23891C11.9862 7.38582 12.5522 7.70912 12.9967 8.15327C13.6165 8.77304 14 9.62932 14 10.5749C14 10.8912 13.9563 11.1994 13.8744 11.4933C13.8001 11.7607 13.6947 12.0138 13.5632 12.2486L13.842 13.6648H13.8417C13.8501 13.7078 13.8487 13.753 13.8354 13.7978C13.7917 13.9466 13.6355 14.0314 13.4872 13.9878L13.4877 13.9879Z" fill="white"/>
</svg>
