<svg width="20" height="20" viewBox="0 0 20 20" fill="none" xmlns="http://www.w3.org/2000/svg">
<path d="M5.73268 9.16602V9.26602H5.83268H13.2327V10.7327H5.83268H5.73268V10.8327V13.1246L1.82609 9.99935L5.73268 6.87408V9.16602Z" fill="black" stroke="white" stroke-width="0.2"/>
<path d="M9.16667 4.06667H9.06667V4.16667V7.4H7.6V4.16667C7.6 3.30273 8.30273 2.6 9.16667 2.6H16.6667C17.5306 2.6 18.2333 3.30273 18.2333 4.16667V15.8333C18.2333 16.6973 17.5306 17.4 16.6667 17.4H9.16667C8.30273 17.4 7.6 16.6973 7.6 15.8333V12.6H9.06667V15.8333V15.9333H9.16667H16.6667H16.7667V15.8333V4.16667V4.06667H16.6667H9.16667Z" fill="black" stroke="white" stroke-width="0.2"/>
</svg>
