<svg width="20" height="20" viewBox="0 0 20 20" fill="none" xmlns="http://www.w3.org/2000/svg">
<path d="M10.5 3C6.35775 3 3 6.35775 3 10.5C3 14.6422 6.35775 18 10.5 18C14.6422 18 18 14.6422 18 10.5C18 6.35775 14.6422 3 10.5 3Z" stroke="black" stroke-linecap="round" stroke-linejoin="round"/>
<path d="M4.70312 15.2595C4.70312 15.2595 6.37488 13.125 10.4999 13.125C14.6249 13.125 16.2974 15.2595 16.2974 15.2595" stroke="black" stroke-linecap="round" stroke-linejoin="round"/>
<path d="M11.7374 9.48744C11.4092 9.81563 10.9641 10 10.5 10C10.0359 10 9.59075 9.81563 9.26256 9.48744C8.93437 9.15925 8.75 8.71413 8.75 8.25C8.75 7.78587 8.93437 7.34075 9.26256 7.01256C9.59075 6.68437 10.0359 6.5 10.5 6.5C10.9641 6.5 11.4092 6.68437 11.7374 7.01256C12.0656 7.34075 12.25 7.78587 12.25 8.25C12.25 8.71413 12.0656 9.15925 11.7374 9.48744Z" stroke="black" stroke-linecap="round" stroke-linejoin="round"/>
</svg>
