<svg width="20" height="20" viewBox="0 0 20 20" fill="none" xmlns="http://www.w3.org/2000/svg">
<path d="M8.51442 12.7891C5.43206 12.7891 2.7998 13.2551 2.7998 15.1215C2.7998 16.9879 5.41537 17.4707 8.51442 17.4707" stroke="#130F26" stroke-linecap="round" stroke-linejoin="round"/>
<path fill-rule="evenodd" clipRule="evenodd" d="M8.51361 10.126C10.5364 10.126 12.1758 8.48579 12.1758 6.46302C12.1758 4.44025 10.5364 2.80078 8.51361 2.80078C6.49084 2.80078 4.85061 4.44025 4.85061 6.46302C4.84378 8.47896 6.47262 10.1192 8.4878 10.126H8.51361Z" stroke="#130F26" stroke-linecap="round" stroke-linejoin="round"/>
<path fill-rule="evenodd" clipRule="evenodd" d="M17.7127 12.6616L17.4546 12.2138C17.2363 11.8349 16.7524 11.7042 16.373 11.9216V11.9216C16.1924 12.028 15.9769 12.0582 15.774 12.0055C15.5711 11.9528 15.3974 11.8216 15.2914 11.6408C15.2232 11.5258 15.1865 11.3949 15.1851 11.2613V11.2613C15.1913 11.047 15.1105 10.8393 14.961 10.6856C14.8116 10.5319 14.6063 10.4452 14.392 10.4453H13.872C13.662 10.4453 13.4607 10.529 13.3125 10.6779C13.1644 10.8267 13.0817 11.0285 13.0827 11.2385V11.2385C13.0764 11.6721 12.7232 12.0203 12.2895 12.0203C12.1559 12.0189 12.0249 11.9822 11.91 11.914V11.914C11.5306 11.6966 11.0467 11.8273 10.8284 12.2062L10.5514 12.6616C10.3333 13.0401 10.4622 13.5236 10.8398 13.7432V13.7432C11.0852 13.8849 11.2364 14.1468 11.2364 14.4301C11.2364 14.7135 11.0852 14.9754 10.8398 15.117V15.117C10.4627 15.3352 10.3336 15.8175 10.5514 16.1948V16.1948L10.8132 16.6465C10.9155 16.831 11.0871 16.9672 11.2901 17.0249C11.4931 17.0826 11.7107 17.057 11.8948 16.9539V16.9539C12.0758 16.8483 12.2914 16.8193 12.4938 16.8735C12.6962 16.9277 12.8686 17.0604 12.9726 17.2423C13.0408 17.3572 13.0775 17.4881 13.0789 17.6218V17.6218C13.0789 18.0598 13.434 18.415 13.872 18.415H14.392C14.8285 18.415 15.1831 18.0622 15.1851 17.6256V17.6256C15.1841 17.4149 15.2674 17.2126 15.4163 17.0636C15.5653 16.9146 15.7676 16.8314 15.9783 16.8324C16.1116 16.836 16.242 16.8725 16.3578 16.9387V16.9387C16.7363 17.1567 17.2198 17.0278 17.4394 16.6503V16.6503L17.7127 16.1948C17.8184 16.0133 17.8475 15.7971 17.7933 15.5941C17.7392 15.3911 17.6063 15.218 17.4242 15.1132V15.1132C17.2421 15.0085 17.1093 14.8354 17.0551 14.6324C17.001 14.4294 17.03 14.2132 17.1358 14.0317C17.2046 13.9116 17.3042 13.812 17.4242 13.7432V13.7432C17.7995 13.5237 17.9282 13.043 17.7127 12.6654V12.6654V12.6616Z" stroke="#130F26" stroke-linecap="round" stroke-linejoin="round"/>
<circle cx="14.134" cy="14.4289" r="1.09298" stroke="#130F26" stroke-linecap="round" stroke-linejoin="round"/>
</svg>
