<svg width="15" height="15" viewBox="0 0 15 15" fill="none" xmlns="http://www.w3.org/2000/svg">
<path d="M1.72656 6.99805C1.72656 4.52752 1.72656 3.29226 2.35571 2.42631C2.5589 2.14664 2.80484 1.9007 3.08451 1.69751C3.28356 1.55289 3.50212 1.44152 3.75071 1.35574C4.5836 1.06836 5.7536 1.06836 7.65625 1.06836C9.83099 1.06836 11.0485 1.06836 11.8996 1.49751C12.0153 1.55588 12.1243 1.62218 12.228 1.69751C12.5077 1.9007 12.7536 2.14664 12.9568 2.42631C13.5859 3.29226 13.5859 4.52752 13.5859 6.99805V8.31575C13.5859 10.7863 13.5859 12.0215 12.9568 12.8875C12.7536 13.1672 12.5077 13.4131 12.228 13.6163C11.362 14.2454 10.1268 14.2454 7.65625 14.2454C5.18572 14.2454 3.95046 14.2454 3.08451 13.6163C2.80484 13.4131 2.5589 13.1672 2.35571 12.8875C1.72656 12.0215 1.72656 10.7863 1.72656 8.31575V6.99805Z" fill="#4779D9" fill-opacity="0.15"/>
<path d="M3.08451 13.6163L3.52535 13.0095L3.08451 13.6163ZM2.35571 12.8875L2.96247 12.4467L2.35571 12.8875ZM12.9568 12.8875L12.35 12.4467L12.9568 12.8875ZM12.228 13.6163L11.7872 13.0095L12.228 13.6163ZM12.228 1.69751L11.7872 2.30427L12.228 1.69751ZM12.9568 2.42631L12.35 2.86715L12.9568 2.42631ZM3.08451 1.69751L3.52535 2.30427L3.08451 1.69751ZM2.35571 2.42631L2.96247 2.86715L2.35571 2.42631ZM8.41139 4.096L8.52871 4.83676V4.83676L8.41139 4.096ZM7.38071 4.096L7.26339 4.83676V4.83676L7.38071 4.096ZM12.8359 6.99805V8.31575H14.3359V6.99805H12.8359ZM2.47656 8.31575V6.99805H0.976562V8.31575H2.47656ZM7.65625 13.4954C6.40428 13.4954 5.52555 13.4944 4.84945 13.4212C4.18739 13.3494 3.80916 13.2157 3.52535 13.0095L2.64367 14.2231C3.22581 14.646 3.89819 14.8269 4.68788 14.9124C5.46353 14.9965 6.43769 14.9954 7.65625 14.9954V13.4954ZM0.976562 8.31575C0.976562 9.53431 0.975533 10.5085 1.05957 11.2841C1.14513 12.0738 1.326 12.7462 1.74895 13.3283L2.96247 12.4467C2.75627 12.1628 2.62257 11.7846 2.55084 11.1226C2.47759 10.4465 2.47656 9.56772 2.47656 8.31575H0.976562ZM3.52535 13.0095C3.30935 12.8526 3.11941 12.6627 2.96247 12.4467L1.74895 13.3283C1.9984 13.6717 2.30033 13.9736 2.64367 14.2231L3.52535 13.0095ZM12.8359 8.31575C12.8359 9.56772 12.8349 10.4465 12.7617 11.1226C12.6899 11.7846 12.5562 12.1628 12.35 12.4467L13.5636 13.3283C13.9865 12.7462 14.1674 12.0738 14.2529 11.2841C14.337 10.5085 14.3359 9.53431 14.3359 8.31575H12.8359ZM7.65625 14.9954C8.87481 14.9954 9.84897 14.9965 10.6246 14.9124C11.4143 14.8269 12.0867 14.646 12.6688 14.2231L11.7872 13.0095C11.5033 13.2157 11.1251 13.3494 10.4631 13.4212C9.78695 13.4944 8.90822 13.4954 7.65625 13.4954V14.9954ZM12.35 12.4467C12.1931 12.6627 12.0031 12.8526 11.7872 13.0095L12.6688 14.2231C13.0122 13.9736 13.3141 13.6717 13.5636 13.3283L12.35 12.4467ZM14.3359 6.99805C14.3359 5.77949 14.337 4.80533 14.2529 4.02968C14.1674 3.23999 13.9865 2.5676 13.5636 1.98547L12.35 2.86715C12.5562 3.15096 12.6899 3.52918 12.7617 4.19125C12.8349 4.86734 12.8359 5.74608 12.8359 6.99805H14.3359ZM11.7872 2.30427C12.0031 2.4612 12.1931 2.65115 12.35 2.86715L13.5636 1.98547C13.3141 1.64213 13.0122 1.34019 12.6688 1.09075L11.7872 2.30427ZM2.47656 6.99805C2.47656 5.74608 2.47759 4.86734 2.55084 4.19125C2.62257 3.52918 2.75627 3.15096 2.96247 2.86715L1.74895 1.98547C1.326 2.5676 1.14513 3.23999 1.05957 4.02968C0.975533 4.80533 0.976562 5.77949 0.976562 6.99805H2.47656ZM2.64367 1.09075C2.30033 1.3402 1.9984 1.64213 1.74895 1.98547L2.96247 2.86715C3.1194 2.65115 3.30935 2.4612 3.52535 2.30427L2.64367 1.09075ZM8.29406 3.35523C8.03037 3.397 7.76174 3.397 7.49804 3.35523L7.26339 4.83676C7.68255 4.90315 8.10955 4.90315 8.52871 4.83676L8.29406 3.35523ZM11.3694 0.966986C10.5492 1.78666 9.96511 2.36108 9.46504 2.7549C8.97613 3.13993 8.62782 3.30237 8.29406 3.35523L8.52871 4.83676C9.21325 4.72835 9.79799 4.402 10.3931 3.93334C10.977 3.47346 11.6279 2.82928 12.4297 2.02803L11.3694 0.966986ZM7.65625 1.81836C8.75495 1.81836 9.569 1.81889 10.2155 1.8697C10.8596 1.92031 11.2638 2.01688 11.5619 2.16718L12.2373 0.827831C11.6843 0.548981 11.0542 0.43098 10.3331 0.374308C9.61439 0.31783 8.73229 0.318359 7.65625 0.318359V1.81836ZM11.5619 2.16718C11.6423 2.20773 11.7167 2.2531 11.7872 2.30427L12.6688 1.09075C12.5319 0.991266 12.3884 0.90402 12.2373 0.827831L11.5619 2.16718ZM3.22039 1.88608C4.06687 2.73253 4.74557 3.41067 5.34746 3.89241C5.96041 4.38299 6.55916 4.72523 7.26339 4.83676L7.49804 3.35523C7.15471 3.30085 6.79611 3.13058 6.28477 2.72131C5.76237 2.3032 5.14984 1.69418 4.28103 0.825402L3.22039 1.88608ZM7.65625 0.318359C6.71254 0.318359 5.92027 0.318092 5.25992 0.355482C4.6003 0.39283 4.01918 0.469718 3.50608 0.646761L3.99534 2.06473C4.31513 1.95438 4.73545 1.88758 5.34472 1.85308C5.95326 1.81863 6.69731 1.81836 7.65625 1.81836V0.318359ZM3.50608 0.646761C3.19419 0.754374 2.90826 0.898508 2.64367 1.09075L3.52535 2.30427C3.65885 2.20728 3.81004 2.12866 3.99534 2.06473L3.50608 0.646761Z" fill="#4779D9"/>
<path d="M5.25 8.37976L6.78542 9.91518L9.85625 6.625" fill="#4779D9" fill-opacity="0.15"/>
<path d="M5.25 8.37976L6.78542 9.91518L9.85625 6.625" stroke="#4779D9" stroke-width="1.5" stroke-linecap="round" stroke-linejoin="round"/>
</svg>
